<svg xmlns="http://www.w3.org/2000/svg" viewBox="0 0 243.37 244.22"><defs><style>.cls-1{fill:#fefefe;}.cls-2{fill:#64b061;}</style></defs><g id="Capa_2" data-name="Capa 2"><g id="Capa_1-2" data-name="Capa 1"><path class="cls-1" d="M123.48,242.35c-21.1.78-39-4-56.11-12.45a10,10,0,0,0-7.6-.85c-18.56,5-37.2,9.67-55.75,14.7-4.09,1.11-4.61.33-3.53-3.53,5.1-18.18,10-36.43,15.06-54.62a7.58,7.58,0,0,0-.63-6.12C4.13,158.88-1.24,136.92.51,113.72c2-26.08,10.86-49.62,28-69.91C45.75,23.28,67.26,9.47,93.27,3.54,133-5.53,169,2.77,200.54,29.21a115.66,115.66,0,0,1,39.08,63.21c9.31,38.78,1.22,74.21-23.43,105.23-19.53,24.59-45.46,39.11-76.75,43.9C133.45,242.47,127.52,242.08,123.48,242.35Z"/><path class="cls-2" d="M222.61,121.13a101,101,0,0,1-106.7,101.09,97.51,97.51,0,0,1-45.33-13.87,9.66,9.66,0,0,0-8.41-1.11c-9.42,2.7-19,5-28.44,7.47-5.19,1.34-5.21,1.32-3.86-3.66,2.31-8.5,4.37-17.07,7.06-25.44,1.51-4.68.83-8.29-1.69-12.49-32.19-53.47-8-123.43,50.13-145.77A100.93,100.93,0,0,1,222,109.66C222.48,113.46,222.43,117.31,222.61,121.13Z"/><path class="cls-1" d="M154.64,179.6c-13-.72-25.08-5-36.44-10.9-25-12.9-42.38-33.51-54.47-58.42-7.32-15.1-4.11-30.09,6.82-40.93,7.42-7.36,18-5.44,22,4.08,2.62,6.1,5,12.32,7.71,18.37,1.64,3.62,1.29,6.69-1.2,9.69-1.28,1.53-2.4,3.19-3.62,4.77-5,6.49-5,6.47-.57,13.21a82.64,82.64,0,0,0,38.24,31.58c3.33,1.39,5.68.9,7.83-1.86,2.66-3.41,5.54-6.65,8.09-10.14,2-2.74,4.42-3.44,7.37-2.05,8.11,3.81,16.2,7.7,24.27,11.61a4.34,4.34,0,0,1,2.6,4.41c-.18,7.61-1.89,14.5-8.38,19.36C168.92,176.87,162.47,180.09,154.64,179.6Z"/></g></g></svg>