<svg id="Capa_1" data-name="Capa 1" xmlns="http://www.w3.org/2000/svg" viewBox="0 0 248.21 256.84"><path d="M629.11,516.19c-.15,25.23-7.27,46.33-21.64,64.86-2.39,3.07-.87,4.65,1.1,6.69Q636.16,616.33,663.7,645c3.85,4,6.82,8.34,5.69,14.2-1,5.27-4,9.2-9.23,10.87a14,14,0,0,1-15.13-3.8c-8.83-9.07-17.57-18.24-26.33-27.37-10.38-10.82-20.81-21.59-31.06-32.53-2.46-2.62-4.3-2.55-7.24-.72-41.23,25.74-93,20.12-127.92-13.73-51-49.44-37.21-135.77,26.63-167.07C543.94,393,620.4,434.56,628.59,506,629,510,629,514,629.11,516.19ZM524.75,593.28c42.17.24,76.45-33.31,76.32-75.39-.13-40.52-31.3-75.58-75.52-75.84-44.63-.27-75.79,36.05-75.91,74.78C449.51,559.26,482.53,593,524.75,593.28Z" transform="translate(-421.42 -414)"/></svg>