<svg xmlns="http://www.w3.org/2000/svg" viewBox="0 0 256.87 257.18"><g id="Capa_2" data-name="Capa 2"><g id="Capa_1-2" data-name="Capa 1"><path d="M256.69,121.85c0,24.24.4,42.08-.11,59.88-.54,18.34-5,35.55-17.39,49.93-13.06,15.15-30.05,22.6-49.47,24-37.09,2.61-74.26,1.2-111.39.87-14.22-.12-28.23-2.6-40.95-9.59-21.07-11.57-32.25-30-35.11-53.34-3.61-29.51-1.76-59.22-2-88.84A314.85,314.85,0,0,1,2.13,64.35C6.47,27.78,33.08,3.15,70,1.15c36-2,71.93-.86,107.89-.68a103.37,103.37,0,0,1,26.19,3.35c29.12,7.77,48.45,30.42,51.67,60.54C258,85.63,256.05,107,256.69,121.85ZM128.86,24.48c-19.64.55-39.29-.41-58.94,1.21C47.25,27.56,31.41,41,27,62.91c-1.67,8.22-2,16.6-2,24.86-.21,32.48-1,65,.76,97.44,1.46,26.65,16.89,43,43.46,46.21,10.64,1.28,21.29.8,31.94,1.19,30,1.11,60,1,89.86-1.53,20.35-1.71,34.66-14.86,39.53-34.78,2-8.34,2.36-16.89,2.41-25.31.18-33.14,1.05-66.3-.74-99.44-1.44-26.58-18.4-43.84-44.87-45.91C167.83,24.12,148.34,25,128.86,24.48Z"/><path d="M128.87,194.81c-36.57,0-66.69-30.1-66.51-66.45.18-36.51,30.18-66.21,66.83-66.15,36.23.06,66.53,29.93,66.13,66.22C194.88,168.59,162.7,195,128.87,194.81Zm0-108.14a41.85,41.85,0,1,0,42.21,41.7A41.84,41.84,0,0,0,128.86,86.67Z"/><path d="M197.3,75.85a15.78,15.78,0,0,1-16-15.67c-.06-8.49,7.32-15.86,15.94-15.92a15.94,15.94,0,0,1,15.92,15.83A15.62,15.62,0,0,1,197.3,75.85Z"/></g></g></svg>