<svg xmlns="http://www.w3.org/2000/svg" viewBox="0 0 256.89 208.2"><g id="Capa_2" data-name="Capa 2"><g id="Capa_1-2" data-name="Capa 1"><path d="M120.21,158.6c0-12.83-.08-25.65.06-38.47,0-3.38-1-5.38-4.17-7-12.55-6.35-18.38-19.66-14.69-32.64C105,68.07,117.81,58.89,130.07,60c14.17,1.3,24.8,11.62,26.42,25.65,1.19,10.32-4.88,22-14.68,26.86-4.11,2-5.29,4.52-5.25,8.89.18,24.81.1,49.62.08,74.44,0,8.3-2.85,12.45-8.36,12.34-5.34-.11-8-4.14-8.06-12.14C120.2,183.57,120.22,171.09,120.21,158.6Z"/><path d="M43.29,0c3,.39,5.46,1.68,6.85,4.43a7.72,7.72,0,0,1-1,8.89c-3.17,3.86-6.67,7.44-9.77,11.36C6.63,66,9.08,123.83,45.17,162.37c1.14,1.21,2.33,2.39,3.36,3.69,3.3,4.12,3.33,8.59.15,11.69-3.5,3.42-7.89,3.3-11.94-.7a125.66,125.66,0,0,1-23.25-31.72A120.91,120.91,0,0,1,36,3.82C38.06,1.78,40.24.09,43.29,0Z"/><path d="M256.87,90.18c-.2,33.68-13,62.1-36.08,86.21-4.81,5-10.44,5-13.58.15-2.72-4.2-1.32-7.83,1.89-11.22,11.84-12.5,21.25-26.57,26.26-43.16,11.35-37.57,3.79-71.34-21.06-101.45-1.69-2.05-3.55-4-5.3-6-4.08-4.69-4.34-8.94-.78-12.34,3.77-3.59,8.1-3.17,12.66,1.49a126.59,126.59,0,0,1,24.29,34.61C252.9,54.81,257.2,72,256.87,90.18Z"/><path d="M65.76,22.82a7.84,7.84,0,0,1,7.16,11.27,16.61,16.61,0,0,1-2.93,4c-27.69,30.36-27.63,73.53.16,104.18,4.39,4.84,4.72,9.71.88,13.13-3.65,3.26-8.41,2.53-12.72-1.95-33.47-34.73-33.4-92.6.14-126.85C60.49,24.51,62.65,22.77,65.76,22.82Z"/><path d="M223.77,90.66c-.39,23.6-8.6,44.49-24.73,62.25-4.6,5.07-9.64,5.89-13.41,2.29s-3.23-8.21,1.28-13.14c27.67-30.3,27.58-73.49-.26-104.16-2.49-2.73-4.28-5.6-3.19-9.42,1.81-6.35,9.29-7.7,14.4-2.37A90.7,90.7,0,0,1,218.8,60.35,96.23,96.23,0,0,1,223.77,90.66Z"/><path d="M191.82,90.49c-.49,15.54-5.6,29.26-16.45,40.63-4.31,4.53-8.53,5-12.22,1.59s-3.65-7.73.29-12.33c16.26-19,16.21-41.45-.11-60.69-3.85-4.54-3.88-8.94-.06-12.33,3.62-3.21,7.75-2.8,11.87,1.47C186.31,60.42,191.5,74.44,191.82,90.49Z"/><path d="M88.19,45.28c5.61-.2,9.9,6.07,7.5,11.19a20,20,0,0,1-3.24,4.38,43.82,43.82,0,0,0,0,58.45c1.65,1.89,3.51,3.67,3.87,6.28a7.78,7.78,0,0,1-4.31,8.3c-3.56,2-6.75,1-9.52-1.74a55.46,55.46,0,0,1-15.89-28.92c-4.32-20.48.65-38.6,14.82-54.08C83.94,46.39,86,45.36,88.19,45.28Z"/></g></g></svg>