<?xml version="1.0" encoding="utf-8"?>
<!-- Generator: Adobe Illustrator 25.0.0, SVG Export Plug-In . SVG Version: 6.00 Build 0)  -->
<svg version="1.1" id="Capa_1" xmlns="http://www.w3.org/2000/svg" xmlns:xlink="http://www.w3.org/1999/xlink" x="0px" y="0px"
	 viewBox="0 0 86.9 84.3" style="enable-background:new 0 0 86.9 84.3;" xml:space="preserve">
<style type="text/css">
	.st0{fill:#020202;}
</style>
<g id="Capa_2_1_">
	<g id="Capa_1-2">
		<path class="st0" d="M79.4,5.4c-6.7-7.2-15.5-7.2-21.9,0.1c-1.9,2.1-3,3-6.1,2c-4.8-1.6-10-1.6-14.8-0.1c-3.8,1.2-5.5,0.3-7.7-2.4
			c-4-5-9.4-6-15.1-4C2.1,5.1-4.1,25,3,35.3c1.7,2.5,3.8,4.4,7,4.1c3.4-0.3,5.3-2.8,6.5-5.7s1-6.2,0.5-9.5c-0.5-4-1.5-8.3,1.5-11.8
			c1.8-2.1,3.9-3.1,6.6-1.3s2.7,3.6,1.2,6.3c-6.1,11.1-9.5,23-11,35.6c-2,16.8,8.2,30.4,23.7,31.2c21,1.1,33.5-9.8,32.7-28.8
			c-0.6-13.3-4.1-26.2-10.4-37.9c-1.1-2.1-3.2-4.5,0.3-6.2c3.5-1.7,5.9,0.1,7.4,3.2c1.4,2.8,1,5.9,0.5,10c0,0.5-0.1,2.2,0,3.8
			c0.3,4.5,1.6,8.8,6.6,9.9c5.3,1.1,7.8-2.9,9.3-7C88.8,21.3,86.3,12.7,79.4,5.4z M67.6,55c0.2,13.3-6.8,22.5-17.4,24.7
			c-3.5,0.7-6.1,0.6-5.3-4.1c0.2-1.4,0.2-2.9,0-4.3c-0.6-3.3,1-4.5,4.1-5.3c6.5-1.7,10.3-6,10.4-10.8c0-5-4.1-9.2-10.7-11.1
			c-4.1-1.2-8.6-1.1-12.6,0.5c-4.7,1.8-8.6,4.6-8.8,10.3c-0.2,4.7,3.3,8.7,8.9,10.9c1.8,0.7,4.9-0.1,5.2,2.6
			c0.5,3.5,0.4,7.1-0.1,10.7c-0.3,2.1-2.7,1-4.2,0.8C26.5,78.3,18.9,69,19.3,58.4C19.8,43,24.5,28,32.8,14.9
			c4.1-6.4,18.8-5.7,22.9,1C62.7,27.7,66.8,41.2,67.6,55z M40.3,53.8c-2-0.8-5.5-0.2-5.2-3.3c0.2-3.2,3.5-3,5.9-2.9
			c2.1,0,5,0.2,5,2.8C46,53.8,42.5,53.1,40.3,53.8z"/>
		<path class="st0" d="M36.8,27.1c1.8-0.2,3.4,1.1,3.6,2.8c0,0.1,0,0.3,0,0.5c0.2,2.2-1,3.9-3.3,4c-2,0.1-3.2-1.2-3.3-3.3
			S34.6,27.3,36.8,27.1z"/>
		<path class="st0" d="M49,27.1c2.4,0,3.5,1.3,3.6,3.2c0.2,2.2-0.9,4-3.2,4.1s-3.5-1.7-3.5-3.9c-0.2-1.8,1.2-3.3,2.9-3.5
			C48.9,27.1,49,27.1,49,27.1z"/>
	</g>
</g>
</svg>
