<svg xmlns="http://www.w3.org/2000/svg" viewBox="0 0 256.88 256.84"><g id="Capa_2" data-name="Capa 2"><g id="Capa_1-2" data-name="Capa 1"><path d="M128.83.12c27.51-.63,54.89,1.25,82.23,4.07,21.61,2.23,39.37,20.59,41.7,42.12,3.91,36.16,4.63,72.42,3.84,108.72-.41,19-1.84,37.91-4.09,56.74-2.63,22.08-21,38.68-43.23,41.06-36,3.86-72.1,4.5-108.23,3.72a545.31,545.31,0,0,1-56.24-4.11C22.6,249.63,6.38,231.43,4,209,.21,173.66-.44,138.24.23,102.77.6,83.46,2.07,64.2,4.34,45,7,23,25.4,6.09,47.58,4,74.62,1.46,101.66-.47,128.83.12ZM110.36,173.3h0c0,9.83.06,19.66,0,29.49,0,3.81,1.53,5.43,5.4,5.29,5.16-.19,10.33,0,15.49-.05,6.67,0,6.95-.31,7-7.15q0-27.74.06-55.47c0-6.52.39-6.9,6.65-7,5.16-.05,10.33,0,15.49,0,3.06,0,5.21-1.11,5.59-4.41.74-6.28,1.4-12.56,2.14-18.84.48-4.06-1.25-5.86-5.35-5.79-6.49.1-13,0-19.49,0-3.44,0-5.26-1.25-5.13-5,.18-5.33-.11-10.67.11-16,.37-8.73,4.45-12.8,13.05-13.21,3.66-.17,7.33-.1,11-.09,3.31,0,4.92-1.64,4.93-4.9,0-5.33,0-10.66,0-16,0-3.83-2-5.4-5.6-5.4-5,0-10-.22-15,.05-6.66.36-13.31,1.08-19.28,4.47-12.14,6.9-16.79,17.91-17,31.29q-.15,10-.08,20c0,3.36-1.48,4.85-4.83,4.79-4-.08-8,0-12,0-3.24,0-5,1.36-4.92,4.79q.14,9.75,0,19.49c0,3.47,1.78,4.74,5,4.72,3.66,0,7.34.21,11,0,4.41-.26,5.86,1.72,5.79,5.93C110.24,154,110.36,163.64,110.36,173.3Z"/></g></g></svg>