<svg xmlns="http://www.w3.org/2000/svg" viewBox="0 0 246.64 257.04"><g id="Capa_2" data-name="Capa 2"><g id="Capa_1-2" data-name="Capa 1"><path d="M183.28,236.79c-5.08-.72-12-1.58-18.9-2.71-4.61-.75-8.4,0-11.77,3.6-4.24,4.47-8.82,8.61-13.36,12.79-9.58,8.81-22.39,8.76-32-.11-4.52-4.19-9.08-8.35-13.35-12.79A11.47,11.47,0,0,0,83.09,234c-5.75.92-11.52,1.71-17.28,2.56-13.14,2-23.91-5.17-26.88-18.09-1.45-6.32-2.63-12.72-3.51-19.14-.6-4.46-2.85-7.17-6.73-9.13-5.8-2.92-11.57-5.94-17.14-9.26C.91,174.57-2.8,162.85,2.19,151.5c2.62-5.94,5.53-11.76,8.46-17.55a11.34,11.34,0,0,0-.06-11c-2.72-5.34-5.31-10.75-7.84-16.18C-3.08,94.3.56,82.46,12.51,75.53c5.76-3.34,11.71-6.35,17.59-9.48a9,9,0,0,0,5-7c1.14-6.9,2.25-13.81,3.82-20.61,2.91-12.54,13.26-19.63,26-18Q73.63,21.5,82.26,23c4.6.79,8.4,0,11.77-3.6,4.23-4.47,8.82-8.62,13.35-12.79,9.59-8.81,22.39-8.77,32,.11,4.53,4.18,9.08,8.34,13.36,12.78a11.46,11.46,0,0,0,10.81,3.62c5.75-.92,11.52-1.71,17.28-2.56,13.17-2,23.88,5.14,26.89,18.1,1.46,6.31,2.63,12.72,3.51,19.14.61,4.46,2.86,7.17,6.74,9.12,5.8,2.93,11.57,5.94,17.14,9.26,10.65,6.33,14.35,18,9.34,29.4-2.62,5.94-5.53,11.76-8.45,17.56a11.35,11.35,0,0,0,.06,11c2.72,5.35,5.31,10.76,7.85,16.19,5.83,12.49,2.18,24.31-9.77,31.25-5.76,3.34-11.72,6.35-17.6,9.47a9.07,9.07,0,0,0-5,7c-1.17,7.05-2.3,14.13-3.93,21.09C205,230,196.08,236.85,183.28,236.79ZM185.43,221c3.68-.45,6.19-2.45,6.91-6.46,1.23-6.88,2.4-13.77,3.72-20.64a22.8,22.8,0,0,1,12.38-16.61c5.46-2.87,10.91-5.75,16.32-8.71,6.36-3.47,7.23-6.08,4.19-12.53q-4-8.59-8.23-17.12a22.17,22.17,0,0,1,0-20.66c2.94-6,5.85-12,8.63-18,2.47-5.37,1.55-8.25-3.64-11.17-5.52-3.1-11.12-6.06-16.75-9a23.19,23.19,0,0,1-13-17.31c-1.19-6.55-2.19-13.14-3.54-19.66-1.17-5.66-4-7.41-9.66-6.63-6.26.85-12.56,1.5-18.8,2.55-8.26,1.4-15-1.23-20.94-6.87-4.46-4.26-8.9-8.52-13.39-12.75-5-4.74-7.68-4.71-12.78.11-4.6,4.35-9.13,8.77-13.76,13.09C97.44,37.9,90.86,40.35,83,39.08c-6.07-1-12.2-1.65-18.31-2.46-7.1-.95-9.62.9-10.9,8.1-1.08,6.07-2,12.15-3.16,18.21A22.91,22.91,0,0,1,38,79.92c-5.32,2.76-10.6,5.6-15.88,8.46-6.63,3.59-7.5,6.19-4.33,12.88,2.64,5.57,5.26,11.15,8,16.66A22.36,22.36,0,0,1,25.85,139q-4.35,8.73-8.43,17.57c-2.63,5.67-1.74,8.48,3.73,11.53S32,174,37.46,176.83c7.36,3.73,11.81,9.54,13.24,17.67,1.16,6.56,2.19,13.14,3.56,19.65,1.13,5.38,4,7.18,9.33,6.46,6.27-.84,12.56-1.55,18.8-2.55,8.39-1.34,15.4,1.18,21.41,7,4.31,4.17,8.67,8.29,13,12.41,5.22,4.94,7.83,4.91,13.15-.14,4.59-4.36,9.11-8.8,13.76-13.09,5.56-5.12,12-7.5,19.69-6.31C170.66,219.07,177.93,219.93,185.43,221Z"/><path d="M179.73,79.52c.3,3.79-2.17,6.16-4.52,8.51Q156.35,107,137.44,125.84q-26.31,26.31-52.63,52.62a54.87,54.87,0,0,1-4.75,4.41c-3.63,2.86-8,2.8-10.91,0s-3.08-7.46-.06-11.28a43.46,43.46,0,0,1,3.39-3.67q45.19-45.21,90.42-90.4a26.59,26.59,0,0,1,5.34-4.46A7.54,7.54,0,0,1,179.73,79.52Z"/><path d="M93.82,116.79A28,28,0,0,1,66.09,89c0-15,13-27.83,27.93-27.65S121.44,74.22,121.52,89C121.6,104,108.86,116.78,93.82,116.79Zm-.2-39.07C87,77.78,82.45,82.35,82.42,89c0,6.86,4.69,11.55,11.56,11.47,6.63-.08,11.19-4.69,11.21-11.33C105.21,82.27,100.55,77.65,93.62,77.72Z"/><path d="M180.55,168c0,14.94-13,27.83-27.9,27.68s-27.42-12.8-27.52-27.56c-.11-15,12.62-27.82,27.66-27.84A28,28,0,0,1,180.55,168Zm-16.33-.11c0-6.65-4.58-11.24-11.22-11.31-6.89-.07-11.59,4.58-11.55,11.47,0,6.66,4.58,11.24,11.22,11.3C159.6,179.39,164.25,174.79,164.22,167.87Z"/></g></g></svg>