<svg xmlns="http://www.w3.org/2000/svg" viewBox="0 0 256.94 182.64"><g id="Capa_2" data-name="Capa 2"><g id="Capa_1-2" data-name="Capa 1"><path d="M256.8,91.6c.61,19.86-.94,39.61-3,59.32-1.37,12.86-11.61,23.91-24.48,25.46q-31.72,3.83-63.67,5.37-28,1.31-56,.69c-27.3-.61-54.52-2.66-81.63-6a28.48,28.48,0,0,1-24.5-24.31A498.18,498.18,0,0,1,1.1,59.39c.58-9,1.42-17.92,2.18-26.87A29.34,29.34,0,0,1,29,6.08,842.83,842.83,0,0,1,149.66.27c26.63.71,53.2,2.66,79.63,6,12.86,1.64,23.1,12.64,24.47,25.49C255.88,51.67,257.42,71.58,256.8,91.6ZM108.12,50v81.75c1.82.29,2.73-.85,3.79-1.55q26.84-17.84,53.63-35.74c4.47-3,4.45-3.2-.21-6.32Q145.19,74.65,125,61.23Z"/></g></g></svg>