<svg xmlns="http://www.w3.org/2000/svg" viewBox="0 0 201.67 201.46"><g id="Capa_2" data-name="Capa 2"><g id="Capa_1-2" data-name="Capa 1"><path d="M201.67,100.84c-1,56.66-45.1,100.73-101.13,100.62A100.07,100.07,0,0,1,0,100.41C.34,43.83,45.25-.23,101.21,0S200.93,44.8,201.67,100.84Zm-187-.29c0,21.09,4.71,35.3,17.65,52.9.92,1.25,1.44,3.54,3.42,3.07,1.52-.36,1.37-2.48,1.8-3.86,4.81-15.59,13.71-28,28-36.2,6.09-3.51,11.8-5,18.72-1.23,10.21,5.64,21.39,6.17,31.64.51,8.64-4.77,15.44-2.36,22.67,2.32,13.09,8.47,21.09,20.51,25.54,35.21.36,1.2.2,2.95,1.72,3.34,1.35.35,1.84-1.16,2.54-2,15.83-19.74,21.47-42.55,17.72-67.1C179,41,136.68,7.57,86,15.56,44.55,22.09,13.21,60.05,14.66,100.55Z"/><path d="M100.85,31.63c22.13,0,40.84,18.73,40.68,40.73a41,41,0,0,1-40.88,40.56c-22.28,0-40.75-18.53-40.7-40.75S78.57,31.64,100.85,31.63Z"/></g></g></svg>